<mxfile host="app.diagrams.net" agent="Mozilla/5.0 (Windows NT 10.0; Win64; x64) AppleWebKit/537.36 (KHTML, like Gecko) Chrome/138.0.0.0 Safari/537.36" version="28.0.7">
  <diagram name="ページ1" id="NDNhFJdXWe8HxZ1EJZc7">
    <mxGraphModel dx="1426" dy="2081" grid="1" gridSize="10" guides="1" tooltips="1" connect="1" arrows="1" fold="1" page="1" pageScale="1" pageWidth="827" pageHeight="1169" math="0" shadow="0">
      <root>
        <mxCell id="0" />
        <mxCell id="1" parent="0" />
        <mxCell id="gAYh33xrpMIJDQLmw2Uc-2" value="接続" style="shape=process;whiteSpace=wrap;html=1;backgroundOutline=1;fillColor=#60a917;fontColor=#ffffff;strokeColor=#2D7600;" vertex="1" parent="1">
          <mxGeometry x="60" y="70" width="700" height="40" as="geometry" />
        </mxCell>
        <mxCell id="gAYh33xrpMIJDQLmw2Uc-12" value="" style="edgeStyle=orthogonalEdgeStyle;rounded=0;orthogonalLoop=1;jettySize=auto;html=1;entryX=0.5;entryY=0;entryDx=0;entryDy=0;exitX=0.5;exitY=1;exitDx=0;exitDy=0;" edge="1" parent="1" source="gAYh33xrpMIJDQLmw2Uc-10" target="gAYh33xrpMIJDQLmw2Uc-11">
          <mxGeometry relative="1" as="geometry" />
        </mxCell>
        <mxCell id="gAYh33xrpMIJDQLmw2Uc-27" value="" style="edgeStyle=orthogonalEdgeStyle;rounded=0;orthogonalLoop=1;jettySize=auto;html=1;" edge="1" parent="1" source="gAYh33xrpMIJDQLmw2Uc-10" target="gAYh33xrpMIJDQLmw2Uc-26">
          <mxGeometry relative="1" as="geometry" />
        </mxCell>
        <mxCell id="gAYh33xrpMIJDQLmw2Uc-10" value="コードを持っている" style="rhombus;whiteSpace=wrap;html=1;fillColor=#0050ef;fontColor=#ffffff;strokeColor=#001DBC;" vertex="1" parent="1">
          <mxGeometry x="60" y="120" width="200" height="60" as="geometry" />
        </mxCell>
        <mxCell id="gAYh33xrpMIJDQLmw2Uc-16" value="" style="edgeStyle=orthogonalEdgeStyle;rounded=0;orthogonalLoop=1;jettySize=auto;html=1;entryX=0.5;entryY=0;entryDx=0;entryDy=0;exitX=0;exitY=0.5;exitDx=0;exitDy=0;" edge="1" parent="1" source="gAYh33xrpMIJDQLmw2Uc-17" target="gAYh33xrpMIJDQLmw2Uc-15">
          <mxGeometry relative="1" as="geometry">
            <mxPoint x="430" y="210" as="sourcePoint" />
            <mxPoint x="150" y="220" as="targetPoint" />
          </mxGeometry>
        </mxCell>
        <mxCell id="gAYh33xrpMIJDQLmw2Uc-18" value="" style="edgeStyle=orthogonalEdgeStyle;rounded=0;orthogonalLoop=1;jettySize=auto;html=1;entryX=0.5;entryY=0;entryDx=0;entryDy=0;" edge="1" parent="1" source="gAYh33xrpMIJDQLmw2Uc-11" target="gAYh33xrpMIJDQLmw2Uc-17">
          <mxGeometry relative="1" as="geometry" />
        </mxCell>
        <mxCell id="gAYh33xrpMIJDQLmw2Uc-32" value="" style="edgeStyle=orthogonalEdgeStyle;rounded=0;orthogonalLoop=1;jettySize=auto;html=1;" edge="1" parent="1" source="gAYh33xrpMIJDQLmw2Uc-11" target="gAYh33xrpMIJDQLmw2Uc-31">
          <mxGeometry relative="1" as="geometry" />
        </mxCell>
        <mxCell id="gAYh33xrpMIJDQLmw2Uc-11" value="知っているコード" style="rhombus;whiteSpace=wrap;html=1;fillColor=#6a00ff;fontColor=#ffffff;strokeColor=#3700CC;" vertex="1" parent="1">
          <mxGeometry x="590" y="250" width="200" height="60" as="geometry" />
        </mxCell>
        <mxCell id="gAYh33xrpMIJDQLmw2Uc-14" value="送信" style="text;html=1;align=center;verticalAlign=middle;whiteSpace=wrap;rounded=0;" vertex="1" parent="1">
          <mxGeometry x="240" y="120" width="60" height="30" as="geometry" />
        </mxCell>
        <mxCell id="gAYh33xrpMIJDQLmw2Uc-25" value="" style="edgeStyle=orthogonalEdgeStyle;rounded=0;orthogonalLoop=1;jettySize=auto;html=1;" edge="1" parent="1" source="gAYh33xrpMIJDQLmw2Uc-15" target="gAYh33xrpMIJDQLmw2Uc-24">
          <mxGeometry relative="1" as="geometry" />
        </mxCell>
        <mxCell id="gAYh33xrpMIJDQLmw2Uc-37" value="" style="edgeStyle=orthogonalEdgeStyle;rounded=0;orthogonalLoop=1;jettySize=auto;html=1;" edge="1" parent="1" source="gAYh33xrpMIJDQLmw2Uc-15" target="gAYh33xrpMIJDQLmw2Uc-36">
          <mxGeometry relative="1" as="geometry" />
        </mxCell>
        <mxCell id="gAYh33xrpMIJDQLmw2Uc-15" value="公開鍵で検証" style="rhombus;whiteSpace=wrap;html=1;fillColor=#0050ef;fontColor=#ffffff;strokeColor=#001DBC;" vertex="1" parent="1">
          <mxGeometry x="20" y="450" width="200" height="60" as="geometry" />
        </mxCell>
        <mxCell id="gAYh33xrpMIJDQLmw2Uc-17" value="コードを秘密鍵で署名" style="whiteSpace=wrap;html=1;fillColor=#6a00ff;fontColor=#ffffff;strokeColor=#3700CC;" vertex="1" parent="1">
          <mxGeometry x="615" y="380" width="150" height="50" as="geometry" />
        </mxCell>
        <mxCell id="gAYh33xrpMIJDQLmw2Uc-21" value="送信" style="text;html=1;align=center;verticalAlign=middle;whiteSpace=wrap;rounded=0;" vertex="1" parent="1">
          <mxGeometry x="555" y="380" width="60" height="30" as="geometry" />
        </mxCell>
        <mxCell id="gAYh33xrpMIJDQLmw2Uc-22" value="コードが取り出せる" style="text;html=1;align=center;verticalAlign=middle;whiteSpace=wrap;rounded=0;" vertex="1" parent="1">
          <mxGeometry y="520" width="110" height="30" as="geometry" />
        </mxCell>
        <mxCell id="gAYh33xrpMIJDQLmw2Uc-24" value="処理開始" style="shape=hexagon;perimeter=hexagonPerimeter2;whiteSpace=wrap;html=1;fixedSize=1;fillColor=#60a917;fontColor=#ffffff;strokeColor=#2D7600;" vertex="1" parent="1">
          <mxGeometry x="60" y="690" width="120" height="80" as="geometry" />
        </mxCell>
        <mxCell id="gAYh33xrpMIJDQLmw2Uc-29" value="" style="edgeStyle=orthogonalEdgeStyle;rounded=0;orthogonalLoop=1;jettySize=auto;html=1;entryX=0;entryY=0;entryDx=0;entryDy=0;" edge="1" parent="1" source="gAYh33xrpMIJDQLmw2Uc-26" target="gAYh33xrpMIJDQLmw2Uc-11">
          <mxGeometry relative="1" as="geometry">
            <mxPoint x="160" y="310" as="targetPoint" />
          </mxGeometry>
        </mxCell>
        <mxCell id="gAYh33xrpMIJDQLmw2Uc-26" value="コードを生成" style="whiteSpace=wrap;html=1;fillColor=#0050ef;fontColor=#ffffff;strokeColor=#001DBC;" vertex="1" parent="1">
          <mxGeometry x="294" y="130" width="120" height="40" as="geometry" />
        </mxCell>
        <mxCell id="gAYh33xrpMIJDQLmw2Uc-30" value="送信" style="text;html=1;align=center;verticalAlign=middle;whiteSpace=wrap;rounded=0;" vertex="1" parent="1">
          <mxGeometry x="160" y="190" width="60" height="30" as="geometry" />
        </mxCell>
        <mxCell id="gAYh33xrpMIJDQLmw2Uc-34" value="" style="edgeStyle=orthogonalEdgeStyle;rounded=0;orthogonalLoop=1;jettySize=auto;html=1;entryX=0;entryY=0;entryDx=0;entryDy=0;" edge="1" parent="1" source="gAYh33xrpMIJDQLmw2Uc-31" target="gAYh33xrpMIJDQLmw2Uc-15">
          <mxGeometry relative="1" as="geometry">
            <mxPoint x="320" y="280" as="targetPoint" />
          </mxGeometry>
        </mxCell>
        <mxCell id="gAYh33xrpMIJDQLmw2Uc-31" value="コードを適当にラップする" style="whiteSpace=wrap;html=1;fillColor=#6a00ff;fontColor=#ffffff;strokeColor=#3700CC;" vertex="1" parent="1">
          <mxGeometry x="400" y="260" width="150" height="40" as="geometry" />
        </mxCell>
        <mxCell id="gAYh33xrpMIJDQLmw2Uc-35" value="送信" style="text;html=1;align=center;verticalAlign=middle;whiteSpace=wrap;rounded=0;" vertex="1" parent="1">
          <mxGeometry x="340" y="250" width="60" height="30" as="geometry" />
        </mxCell>
        <mxCell id="gAYh33xrpMIJDQLmw2Uc-40" value="" style="edgeStyle=orthogonalEdgeStyle;rounded=0;orthogonalLoop=1;jettySize=auto;html=1;" edge="1" parent="1" source="gAYh33xrpMIJDQLmw2Uc-36" target="gAYh33xrpMIJDQLmw2Uc-39">
          <mxGeometry relative="1" as="geometry" />
        </mxCell>
        <mxCell id="gAYh33xrpMIJDQLmw2Uc-42" value="" style="edgeStyle=orthogonalEdgeStyle;rounded=0;orthogonalLoop=1;jettySize=auto;html=1;" edge="1" parent="1" source="gAYh33xrpMIJDQLmw2Uc-36" target="gAYh33xrpMIJDQLmw2Uc-41">
          <mxGeometry relative="1" as="geometry" />
        </mxCell>
        <mxCell id="gAYh33xrpMIJDQLmw2Uc-36" value="認証画面＆認証不可コードを送信" style="whiteSpace=wrap;html=1;fillColor=#0050ef;fontColor=#ffffff;strokeColor=#001DBC;" vertex="1" parent="1">
          <mxGeometry x="350" y="455" width="210" height="50" as="geometry" />
        </mxCell>
        <mxCell id="gAYh33xrpMIJDQLmw2Uc-38" value="コードが取り出せない" style="text;html=1;align=center;verticalAlign=middle;whiteSpace=wrap;rounded=0;" vertex="1" parent="1">
          <mxGeometry x="210" y="450" width="150" height="30" as="geometry" />
        </mxCell>
        <mxCell id="gAYh33xrpMIJDQLmw2Uc-46" value="" style="edgeStyle=orthogonalEdgeStyle;rounded=0;orthogonalLoop=1;jettySize=auto;html=1;" edge="1" parent="1" source="gAYh33xrpMIJDQLmw2Uc-39" target="gAYh33xrpMIJDQLmw2Uc-45">
          <mxGeometry relative="1" as="geometry" />
        </mxCell>
        <mxCell id="gAYh33xrpMIJDQLmw2Uc-39" value="カメラを起動" style="whiteSpace=wrap;html=1;fillColor=#6a00ff;fontColor=#ffffff;strokeColor=#3700CC;" vertex="1" parent="1">
          <mxGeometry x="645" y="455" width="120" height="50" as="geometry" />
        </mxCell>
        <mxCell id="gAYh33xrpMIJDQLmw2Uc-44" value="" style="edgeStyle=orthogonalEdgeStyle;rounded=0;orthogonalLoop=1;jettySize=auto;html=1;" edge="1" parent="1" source="gAYh33xrpMIJDQLmw2Uc-41" target="gAYh33xrpMIJDQLmw2Uc-43">
          <mxGeometry relative="1" as="geometry" />
        </mxCell>
        <mxCell id="gAYh33xrpMIJDQLmw2Uc-41" value="新規鍵ペアを作成" style="whiteSpace=wrap;html=1;fillColor=#0050ef;fontColor=#ffffff;strokeColor=#001DBC;" vertex="1" parent="1">
          <mxGeometry x="395" y="545" width="120" height="40" as="geometry" />
        </mxCell>
        <mxCell id="gAYh33xrpMIJDQLmw2Uc-48" value="" style="edgeStyle=orthogonalEdgeStyle;rounded=0;orthogonalLoop=1;jettySize=auto;html=1;exitX=0;exitY=0.5;exitDx=0;exitDy=0;entryX=1;entryY=0.5;entryDx=0;entryDy=0;shape=link;endArrow=none;endFill=0;" edge="1" parent="1" source="gAYh33xrpMIJDQLmw2Uc-45" target="gAYh33xrpMIJDQLmw2Uc-43">
          <mxGeometry relative="1" as="geometry">
            <mxPoint x="580" y="690" as="targetPoint" />
          </mxGeometry>
        </mxCell>
        <mxCell id="gAYh33xrpMIJDQLmw2Uc-43" value="表示" style="whiteSpace=wrap;html=1;fillColor=#0050ef;fontColor=#ffffff;strokeColor=#001DBC;" vertex="1" parent="1">
          <mxGeometry x="395" y="610" width="120" height="30" as="geometry" />
        </mxCell>
        <mxCell id="gAYh33xrpMIJDQLmw2Uc-52" value="" style="edgeStyle=orthogonalEdgeStyle;rounded=0;orthogonalLoop=1;jettySize=auto;html=1;" edge="1" parent="1" source="gAYh33xrpMIJDQLmw2Uc-45" target="gAYh33xrpMIJDQLmw2Uc-51">
          <mxGeometry relative="1" as="geometry" />
        </mxCell>
        <mxCell id="gAYh33xrpMIJDQLmw2Uc-45" value="読み取り" style="whiteSpace=wrap;html=1;fillColor=#6a00ff;fontColor=#ffffff;strokeColor=#3700CC;" vertex="1" parent="1">
          <mxGeometry x="645" y="580" width="120" height="60" as="geometry" />
        </mxCell>
        <mxCell id="gAYh33xrpMIJDQLmw2Uc-54" value="" style="edgeStyle=orthogonalEdgeStyle;rounded=0;orthogonalLoop=1;jettySize=auto;html=1;exitX=1;exitY=0.5;exitDx=0;exitDy=0;entryX=1;entryY=0;entryDx=0;entryDy=0;" edge="1" parent="1" source="gAYh33xrpMIJDQLmw2Uc-51" target="gAYh33xrpMIJDQLmw2Uc-11">
          <mxGeometry relative="1" as="geometry">
            <mxPoint x="705" y="810" as="targetPoint" />
            <Array as="points">
              <mxPoint x="810" y="710" />
              <mxPoint x="810" y="230" />
              <mxPoint x="740" y="230" />
            </Array>
          </mxGeometry>
        </mxCell>
        <mxCell id="gAYh33xrpMIJDQLmw2Uc-51" value="コードを取得" style="whiteSpace=wrap;html=1;fillColor=#6a00ff;fontColor=#ffffff;strokeColor=#3700CC;" vertex="1" parent="1">
          <mxGeometry x="645" y="680" width="120" height="60" as="geometry" />
        </mxCell>
        <mxCell id="gAYh33xrpMIJDQLmw2Uc-57" value="PC処理" style="rounded=0;whiteSpace=wrap;html=1;fillColor=#0050ef;fontColor=#ffffff;strokeColor=#001DBC;" vertex="1" parent="1">
          <mxGeometry x="50" y="-20" width="130" height="40" as="geometry" />
        </mxCell>
        <mxCell id="gAYh33xrpMIJDQLmw2Uc-58" value="スマホ処理" style="rounded=0;whiteSpace=wrap;html=1;fillColor=#6a00ff;fontColor=#ffffff;strokeColor=#3700CC;" vertex="1" parent="1">
          <mxGeometry x="190" y="-20" width="130" height="40" as="geometry" />
        </mxCell>
        <mxCell id="gAYh33xrpMIJDQLmw2Uc-59" value="共通処理" style="rounded=0;whiteSpace=wrap;html=1;fillColor=#60a917;fontColor=#ffffff;strokeColor=#2D7600;" vertex="1" parent="1">
          <mxGeometry x="330" y="-20" width="130" height="40" as="geometry" />
        </mxCell>
      </root>
    </mxGraphModel>
  </diagram>
</mxfile>
